<?xml version="1.0" encoding="UTF-8" standalone="no"?>
<!DOCTYPE svg PUBLIC "-//W3C//DTD SVG 1.1//EN"
 "http://www.w3.org/Graphics/SVG/1.1/DTD/svg11.dtd">
<!-- Generated by graphviz version 2.26.3 (20100126.1600)
 -->
<!-- Title: _anonymous_0 Pages: 1 -->
<svg width="814pt" height="230pt"
 viewBox="0.00 0.00 814.00 230.00" xmlns="http://www.w3.org/2000/svg" xmlns:xlink="http://www.w3.org/1999/xlink">
<g id="graph1" class="graph" transform="scale(1 1) rotate(0) translate(4 226)">
<title>_anonymous_0</title>
<polygon fill="white" stroke="white" points="-4,5 -4,-226 811,-226 811,5 -4,5"/>
<g id="graph2" class="cluster"><title>cluster_top.xml</title>
<polygon fill="#f4efea" stroke="#f4efea" points="20,-8 786,-8 798,-20 798,-202 786,-214 20,-214 8,-202 8,-20 20,-8"/>
<path fill="#f4efea" stroke="#f4efea" d="M786,-8C792,-8 798,-14 798,-20"/>
<path fill="#f4efea" stroke="#f4efea" d="M798,-202C798,-208 792,-214 786,-214"/>
<path fill="#f4efea" stroke="#f4efea" d="M20,-214C14,-214 8,-208 8,-202"/>
<path fill="#f4efea" stroke="#f4efea" d="M8,-20C8,-14 14,-8 20,-8"/>
<polyline fill="none" stroke="#f4efea" points="20,-8 786,-8 "/>
<path fill="none" stroke="#f4efea" d="M786,-8C792,-8 798,-14 798,-20"/>
<polyline fill="none" stroke="#f4efea" points="798,-20 798,-202 "/>
<path fill="none" stroke="#f4efea" d="M798,-202C798,-208 792,-214 786,-214"/>
<polyline fill="none" stroke="#f4efea" points="786,-214 20,-214 "/>
<path fill="none" stroke="#f4efea" d="M20,-214C14,-214 8,-208 8,-202"/>
<polyline fill="none" stroke="#f4efea" points="8,-202 8,-20 "/>
<path fill="none" stroke="#f4efea" d="M8,-20C8,-14 14,-8 20,-8"/>
<text text-anchor="middle" x="403" y="-198.3" font-family="Helvetica,sans-Serif" font-size="13.00">top</text>
</g>
<g id="graph4" class="cluster"><title>cluster_top@mulacc1</title>
<polygon fill="#e9dfd5" stroke="#e9dfd5" points="164,-16 656,-16 668,-28 668,-169 656,-181 164,-181 152,-169 152,-28 164,-16"/>
<path fill="#e9dfd5" stroke="#e9dfd5" d="M656,-16C662,-16 668,-22 668,-28"/>
<path fill="#e9dfd5" stroke="#e9dfd5" d="M668,-169C668,-175 662,-181 656,-181"/>
<path fill="#e9dfd5" stroke="#e9dfd5" d="M164,-181C158,-181 152,-175 152,-169"/>
<path fill="#e9dfd5" stroke="#e9dfd5" d="M152,-28C152,-22 158,-16 164,-16"/>
<polyline fill="none" stroke="#e9dfd5" points="164,-16 656,-16 "/>
<path fill="none" stroke="#e9dfd5" d="M656,-16C662,-16 668,-22 668,-28"/>
<polyline fill="none" stroke="#e9dfd5" points="668,-28 668,-169 "/>
<path fill="none" stroke="#e9dfd5" d="M668,-169C668,-175 662,-181 656,-181"/>
<polyline fill="none" stroke="#e9dfd5" points="656,-181 164,-181 "/>
<path fill="none" stroke="#e9dfd5" d="M164,-181C158,-181 152,-175 152,-169"/>
<polyline fill="none" stroke="#e9dfd5" points="152,-169 152,-28 "/>
<path fill="none" stroke="#e9dfd5" d="M152,-28C152,-22 158,-16 164,-16"/>
<text text-anchor="middle" x="410" y="-165.3" font-family="Helvetica,sans-Serif" font-size="13.00">mulacc1</text>
</g>
<g id="graph5" class="cluster"><title>cluster_top@mulacc1outps</title>
<polygon fill="#e9dfd5" stroke="#e9dfd5" points="600,-108 628,-108 640,-120 640,-134 628,-146 600,-146 588,-134 588,-120 600,-108"/>
<path fill="#e9dfd5" stroke="#e9dfd5" d="M628,-108C634,-108 640,-114 640,-120"/>
<path fill="#e9dfd5" stroke="#e9dfd5" d="M640,-134C640,-140 634,-146 628,-146"/>
<path fill="#e9dfd5" stroke="#e9dfd5" d="M600,-146C594,-146 588,-140 588,-134"/>
<path fill="#e9dfd5" stroke="#e9dfd5" d="M588,-120C588,-114 594,-108 600,-108"/>
<polyline fill="none" stroke="#e9dfd5" points="600,-108 628,-108 "/>
<path fill="none" stroke="#e9dfd5" d="M628,-108C634,-108 640,-114 640,-120"/>
<polyline fill="none" stroke="#e9dfd5" points="640,-120 640,-134 "/>
<path fill="none" stroke="#e9dfd5" d="M640,-134C640,-140 634,-146 628,-146"/>
<polyline fill="none" stroke="#e9dfd5" points="628,-146 600,-146 "/>
<path fill="none" stroke="#e9dfd5" d="M600,-146C594,-146 588,-140 588,-134"/>
<polyline fill="none" stroke="#e9dfd5" points="588,-134 588,-120 "/>
<path fill="none" stroke="#e9dfd5" d="M588,-120C588,-114 594,-108 600,-108"/>
</g>
<g id="graph6" class="cluster"><title>cluster_top@mulacc1inps</title>
<polygon fill="#e9dfd5" stroke="#e9dfd5" points="194,-70 222,-70 234,-82 234,-136 222,-148 194,-148 182,-136 182,-82 194,-70"/>
<path fill="#e9dfd5" stroke="#e9dfd5" d="M222,-70C228,-70 234,-76 234,-82"/>
<path fill="#e9dfd5" stroke="#e9dfd5" d="M234,-136C234,-142 228,-148 222,-148"/>
<path fill="#e9dfd5" stroke="#e9dfd5" d="M194,-148C188,-148 182,-142 182,-136"/>
<path fill="#e9dfd5" stroke="#e9dfd5" d="M182,-82C182,-76 188,-70 194,-70"/>
<polyline fill="none" stroke="#e9dfd5" points="194,-70 222,-70 "/>
<path fill="none" stroke="#e9dfd5" d="M222,-70C228,-70 234,-76 234,-82"/>
<polyline fill="none" stroke="#e9dfd5" points="234,-82 234,-136 "/>
<path fill="none" stroke="#e9dfd5" d="M234,-136C234,-142 228,-148 222,-148"/>
<polyline fill="none" stroke="#e9dfd5" points="222,-148 194,-148 "/>
<path fill="none" stroke="#e9dfd5" d="M194,-148C188,-148 182,-142 182,-136"/>
<polyline fill="none" stroke="#e9dfd5" points="182,-136 182,-82 "/>
<path fill="none" stroke="#e9dfd5" d="M182,-82C182,-76 188,-70 194,-70"/>
</g>
<!-- top@mulacc1@port_2 -->
<g id="node5" class="node"><title>top@mulacc1@port_2</title>
<polygon fill="none" stroke="black" points="619.562,-116 632,-127 619.562,-138 599.438,-137.99 599.438,-116.01 619.562,-116"/>
</g>
<!-- top@report1 -->
<g id="node20" class="node"><title>top@report1</title>
<polygon fill="#fcd975" stroke="#fcd975" points="708,-107 778,-107 790,-119 790,-135 778,-147 708,-147 696,-135 696,-119 708,-107"/>
<path fill="#fcd975" stroke="#fcd975" d="M778,-107C784,-107 790,-113 790,-119"/>
<path fill="#fcd975" stroke="#fcd975" d="M790,-135C790,-141 784,-147 778,-147"/>
<path fill="#fcd975" stroke="#fcd975" d="M708,-147C702,-147 696,-141 696,-135"/>
<path fill="#fcd975" stroke="#fcd975" d="M696,-119C696,-113 702,-107 708,-107"/>
<polyline fill="none" stroke="black" points="708,-107 778,-107 "/>
<path fill="none" stroke="black" d="M778,-107C784,-107 790,-113 790,-119"/>
<polyline fill="none" stroke="black" points="790,-119 790,-135 "/>
<path fill="none" stroke="black" d="M790,-135C790,-141 784,-147 778,-147"/>
<polyline fill="none" stroke="black" points="778,-147 708,-147 "/>
<path fill="none" stroke="black" d="M708,-147C702,-147 696,-141 696,-135"/>
<polyline fill="none" stroke="black" points="696,-135 696,-119 "/>
<path fill="none" stroke="black" d="M696,-119C696,-113 702,-107 708,-107"/>
<text text-anchor="middle" x="706" y="-124.2" font-family="Helvetica,sans-Serif" font-size="12.00"> </text>
<polyline fill="none" stroke="black" points="716,-107 716,-147 "/>
<text text-anchor="middle" x="743" y="-132.2" font-family="Helvetica,sans-Serif" font-size="12.00">report1</text>
<text text-anchor="middle" x="743" y="-116.2" font-family="Helvetica,sans-Serif" font-size="12.00">ssink</text>
<polyline fill="none" stroke="black" points="770,-107 770,-147 "/>
<text text-anchor="middle" x="780" y="-124.2" font-family="Helvetica,sans-Serif" font-size="12.00"> </text>
</g>
<!-- top@mulacc1@port_2&#45;&gt;top@report1 -->
<g id="edge20" class="edge"><title>top@mulacc1@port_2:e&#45;&gt;top@report1:iport1:w</title>
<path fill="none" stroke="black" d="M632,-127C656.778,-127 665.368,-127 685.972,-127"/>
<polygon fill="black" stroke="black" points="686,-130.5 696,-127 686,-123.5 686,-130.5"/>
</g>
<!-- top@mulacc1@port_0 -->
<g id="node7" class="node"><title>top@mulacc1@port_0</title>
<polygon fill="none" stroke="black" points="213.562,-118 226,-129 213.562,-140 193.438,-139.99 193.438,-118.01 213.562,-118"/>
</g>
<!-- top@mulacc1@mul1 -->
<g id="node10" class="node"><title>top@mulacc1@mul1</title>
<polygon fill="#fcd975" stroke="#fcd975" points="304,-78 382,-78 394,-90 394,-114 382,-126 304,-126 292,-114 292,-90 304,-78"/>
<path fill="#fcd975" stroke="#fcd975" d="M382,-78C388,-78 394,-84 394,-90"/>
<path fill="#fcd975" stroke="#fcd975" d="M394,-114C394,-120 388,-126 382,-126"/>
<path fill="#fcd975" stroke="#fcd975" d="M304,-126C298,-126 292,-120 292,-114"/>
<path fill="#fcd975" stroke="#fcd975" d="M292,-90C292,-84 298,-78 304,-78"/>
<polyline fill="none" stroke="black" points="304,-78 382,-78 "/>
<path fill="none" stroke="black" d="M382,-78C388,-78 394,-84 394,-90"/>
<polyline fill="none" stroke="black" points="394,-90 394,-114 "/>
<path fill="none" stroke="black" d="M394,-114C394,-120 388,-126 382,-126"/>
<polyline fill="none" stroke="black" points="382,-126 304,-126 "/>
<path fill="none" stroke="black" d="M304,-126C298,-126 292,-120 292,-114"/>
<polyline fill="none" stroke="black" points="292,-114 292,-90 "/>
<path fill="none" stroke="black" d="M292,-90C292,-84 298,-78 304,-78"/>
<text text-anchor="middle" x="302" y="-111.2" font-family="Helvetica,sans-Serif" font-size="12.00"> </text>
<polyline fill="none" stroke="black" points="292,-102 312,-102 "/>
<text text-anchor="middle" x="302" y="-87.2" font-family="Helvetica,sans-Serif" font-size="12.00"> </text>
<polyline fill="none" stroke="black" points="312,-78 312,-126 "/>
<text text-anchor="middle" x="343" y="-107.2" font-family="Helvetica,sans-Serif" font-size="12.00">mul1</text>
<text text-anchor="middle" x="343" y="-91.2" 
font-family="Helvetica,sans-Serif" font-size="12.00">scomb2</text>
<polyline fill="none" stroke="black" points="374,-78 374,-126 "/>
<text text-anchor="middle" x="384" y="-99.2" font-family="Helvetica,sans-Serif" font-size="12.00"> </text>
</g>
<!-- top@mulacc1@port_0&#45;&gt;top@mulacc1@mul1 -->
<g id="edge15" class="edge"><title>top@mulacc1@port_0:e&#45;&gt;top@mulacc1@mul1:iport1:w</title>
<path fill="none" stroke="black" d="M226,-129C252.321,-129 260.081,-117.516 281.761,-114.645"/>
<polygon fill="black" stroke="black" points="282.24,-118.121 292,-114 281.8,-111.135 282.24,-118.121"/>
</g>
<!-- top@mulacc1@port_1 -->
<g id="node8" class="node"><title>top@mulacc1@port_1</title>
<polygon fill="none" stroke="black" points="213.562,-78 226,-89 213.562,-100 193.438,-99.9897 193.438,-78.0103 213.562,-78"/>
</g>
<!-- top@mulacc1@port_1&#45;&gt;top@mulacc1@mul1 -->
<g id="edge17" class="edge"><title>top@mulacc1@port_1:e&#45;&gt;top@mulacc1@mul1:iport2:w</title>
<path fill="none" stroke="black" d="M226,-89C251.67,-89 260.488,-89.7656 281.944,-89.957"/>
<polygon fill="black" stroke="black" points="281.985,-93.4571 292,-90 282.015,-86.4572 281.985,-93.4571"/>
</g>
<!-- dummy -->
<g id="node9" class="node"><title>dummy</title>
</g>
<!-- top@mulacc1@add1 -->
<g id="node11" class="node"><title>top@mulacc1@add1</title>
<polygon fill="#fcd975" stroke="#fcd975" points="442,-66 520,-66 532,-78 532,-102 520,-114 442,-114 430,-102 430,-78 442,-66"/>
<path fill="#fcd975" stroke="#fcd975" d="M520,-66C526,-66 532,-72 532,-78"/>
<path fill="#fcd975" stroke="#fcd975" d="M532,-102C532,-108 526,-114 520,-114"/>
<path fill="#fcd975" stroke="#fcd975" d="M442,-114C436,-114 430,-108 430,-102"/>
<path fill="#fcd975" stroke="#fcd975" d="M430,-78C430,-72 436,-66 442,-66"/>
<polyline fill="none" stroke="black" points="442,-66 520,-66 "/>
<path fill="none" stroke="black" d="M520,-66C526,-66 532,-72 532,-78"/>
<polyline fill="none" stroke="black" points="532,-78 532,-102 "/>
<path fill="none" stroke="black" d="M532,-102C532,-108 526,-114 520,-114"/>
<polyline fill="none" stroke="black" points="520,-114 442,-114 "/>
<path fill="none" stroke="black" d="M442,-114C436,-114 430,-108 430,-102"/>
<polyline fill="none" stroke="black" points="430,-102 430,-78 "/>
<path fill="none" stroke="black" d="M430,-78C430,-72 436,-66 442,-66"/>
<text text-anchor="middle" x="440" y="-99.2" font-family="Helvetica,sans-Serif" font-size="12.00"> </text>
<polyline fill="none" stroke="black" points="430,-90 450,-90 "/>
<text text-anchor="middle" x="440" y="-75.2" font-family="Helvetica,sans-Serif" font-size="12.00"> </text>
<polyline fill="none" stroke="black" points="450,-66 450,-114 "/>
<text text-anchor="middle" x="481" y="-95.2" font-family="Helvetica,sans-Serif" font-size="12.00">add1</text>
<text text-anchor="middle" x="481" y="-79.2" 
font-family="Helvetica,sans-Serif" font-size="12.00">scomb2</text>
<polyline fill="none" stroke="black" points="512,-66 512,-114 "/>
<text text-anchor="middle" x="522" y="-87.2" font-family="Helvetica,sans-Serif" font-size="12.00"> </text>
</g>
<!-- top@mulacc1@mul1&#45;&gt;top@mulacc1@add1 -->
<g id="edge7" class="edge"><title>top@mulacc1@mul1:oport1:e&#45;&gt;top@mulacc1@add1:iport1:w</title>
<path fill="none" stroke="black" d="M394,-102C406,-102 411.25,-102 419.875,-102"/>
<polygon fill="black" stroke="black" points="420,-105.5 430,-102 420,-98.5001 420,-105.5"/>
</g>
<!-- top@mulacc1@add1&#45;&gt;top@mulacc1@port_2 -->
<g id="edge9" class="edge"><title>top@mulacc1@add1:oport1:e&#45;&gt;top@mulacc1@port_2:w</title>
<path fill="none" stroke="black" d="M532,-90C561.134,-90 563.088,-119.092 586.064,-125.683"/>
<polygon fill="black" stroke="black" points="585.627,-129.156 596,-127 586.547,-122.216 585.627,-129.156"/>
</g>
<!-- top@mulacc1@accum -->
<g id="node14" class="node"><title>top@mulacc1@accum</title>
<polygon fill="#fcd975" stroke="#fcd975" points="580,-58 648,-58 660,-70 660,-86 648,-98 580,-98 568,-86 568,-70 580,-58"/>
<path fill="#fcd975" stroke="#fcd975" d="M648,-58C654,-58 660,-64 660,-70"/>
<path fill="#fcd975" stroke="#fcd975" d="M660,-86C660,-92 654,-98 648,-98"/>
<path fill="#fcd975" stroke="#fcd975" d="M580,-98C574,-98 568,-92 568,-86"/>
<path fill="#fcd975" stroke="#fcd975" d="M568,-70C568,-64 574,-58 580,-58"/>
<polyline fill="none" stroke="black" points="580,-58 648,-58 "/>
<path fill="none" stroke="black" d="M648,-58C654,-58 660,-64 660,-70"/>
<polyline fill="none" stroke="black" points="660,-70 660,-86 "/>
<path fill="none" stroke="black" d="M660,-86C660,-92 654,-98 648,-98"/>
<polyline fill="none" stroke="black" points="648,-98 580,-98 "/>
<path fill="none" stroke="black" d="M580,-98C574,-98 568,-92 568,-86"/>
<polyline fill="none" stroke="black" points="568,-86 568,-70 "/>
<path fill="none" stroke="black" d="M568,-70C568,-64 574,-58 580,-58"/>
<text text-anchor="middle" x="578" y="-75.2" font-family="Helvetica,sans-Serif" font-size="12.00"> </text>
<polyline fill="none" stroke="black" points="588,-58 588,-98 "/>
<text text-anchor="middle" x="614" y="-83.2" font-family="Helvetica,sans-Serif" font-size="12.00">accum</text>
<text text-anchor="middle" x="614" y="-67.2" font-family="Helvetica,sans-Serif" font-size="12.00">sdelay</text>
<polyline fill="none" stroke="black" points="640,-58 640,-98 "/>
<text text-anchor="middle" x="650" y="-75.2" font-family="Helvetica,sans-Serif" font-size="12.00"> </text>
</g>
<!-- top@mulacc1@add1&#45;&gt;top@mulacc1@accum -->
<g id="edge11" class="edge"><title>top@mulacc1@add1:oport1:e&#45;&gt;top@mulacc1@accum:iport1:w</title>
<path fill="none" stroke="black" d="M532,-90C544.781,-90 549.179,-83.1086 557.9,-79.7706"/>
<polygon fill="black" stroke="black" points="558.755,-83.1743 568,-78 557.546,-76.2794 558.755,-83.1743"/>
</g>
<!-- top@mulacc1@accum&#45;&gt;top@mulacc1@add1 -->
<g id="edge13" class="edge"><title>top@mulacc1@accum:oport1:e&#45;&gt;top@mulacc1@add1:iport2:w</title>
<path fill="none" stroke="black" d="M661,-78C669.9,-78 666.448,-91.8659 660,-98 652.594,-105.045 577.555,-101.633 568,-98 547.99,-90.3923 552.01,-73.6077 532,-66 489.626,-49.8894 463.36,-35.3044 430,-66 429.385,-66.5662 428.807,-67.2485 428.289,-67.9966"/>
<polygon fill="black" stroke="black" points="424.8,-68.2732 429,-78 431.783,-67.7771 424.8,-68.2732"/>
</g>
<!-- top@constant1 -->
<g id="node22" class="node"><title>top@constant1</title>
<polygon fill="#fcd975" stroke="#fcd975" points="28,-118 112,-118 124,-130 124,-146 112,-158 28,-158 16,-146 16,-130 28,-118"/>
<path fill="#fcd975" stroke="#fcd975" d="M112,-118C118,-118 124,-124 124,-130"/>
<path fill="#fcd975" stroke="#fcd975" d="M124,-146C124,-152 118,-158 112,-158"/>
<path fill="#fcd975" stroke="#fcd975" d="M28,-158C22,-158 16,-152 16,-146"/>
<path fill="#fcd975" stroke="#fcd975" d="M16,-130C16,-124 22,-118 28,-118"/>
<polyline fill="none" stroke="black" points="28,-118 112,-118 "/>
<path fill="none" stroke="black" d="M112,-118C118,-118 124,-124 124,-130"/>
<polyline fill="none" stroke="black" points="124,-130 124,-146 "/>
<path fill="none" stroke="black" d="M124,-146C124,-152 118,-158 112,-158"/>
<polyline fill="none" stroke="black" points="112,-158 28,-158 "/>
<path fill="none" stroke="black" d="M28,-158C22,-158 16,-152 16,-146"/>
<polyline fill="none" stroke="black" points="16,-146 16,-130 "/>
<path fill="none" stroke="black" d="M16,-130C16,-124 22,-118 28,-118"/>
<text text-anchor="middle" x="26" y="-135.2" font-family="Helvetica,sans-Serif" font-size="12.00"> </text>
<polyline fill="none" stroke="black" points="36,-118 36,-158 "/>
<text text-anchor="middle" x="70" y="-143.2" font-family="Helvetica,sans-Serif" font-size="12.00">constant1</text>
<text text-anchor="middle" x="70" y="-127.2" font-family="Helvetica,sans-Serif" font-size="12.00">sconstant</text>
<polyline fill="none" stroke="black" points="104,-118 104,-158 "/>
<text text-anchor="middle" x="114" y="-135.2" font-family="Helvetica,sans-Serif" font-size="12.00"> </text>
</g>
<!-- top@constant1&#45;&gt;top@mulacc1@port_0 -->
<g id="edge22" class="edge"><title>top@constant1:oport1:e&#45;&gt;top@mulacc1@port_0:w</title>
<path fill="none" stroke="black" d="M124,-138C149.904,-138 158.341,-131.109 179.879,-129.387"/>
<polygon fill="black" stroke="black" points="180.141,-132.879 190,-129 179.874,-125.884 180.141,-132.879"/>
</g>
<!-- top@siggen1 -->
<g id="node24" class="node"><title>top@siggen1</title>
<polygon fill="#fcd975" stroke="#fcd975" points="32.5,-60 107.5,-60 119.5,-72 119.5,-88 107.5,-100 32.5,-100 20.5,-88 20.5,-72 32.5,-60"/>
<path fill="#fcd975" stroke="#fcd975" d="M107.5,-60C113.5,-60 119.5,-66 119.5,-72"/>
<path fill="#fcd975" stroke="#fcd975" d="M119.5,-88C119.5,-94 113.5,-100 107.5,-100"/>
<path fill="#fcd975" stroke="#fcd975" d="M32.5,-100C26.5,-100 20.5,-94 20.5,-88"/>
<path fill="#fcd975" stroke="#fcd975" d="M20.5,-72C20.5,-66 26.5,-60 32.5,-60"/>
<polyline fill="none" stroke="black" points="32.5,-60 107.5,-60 "/>
<path fill="none" stroke="black" d="M107.5,-60C113.5,-60 119.5,-66 119.5,-72"/>
<polyline fill="none" stroke="black" points="119.5,-72 119.5,-88 "/>
<path fill="none" stroke="black" d="M119.5,-88C119.5,-94 113.5,-100 107.5,-100"/>
<polyline fill="none" stroke="black" points="107.5,-100 32.5,-100 "/>
<path fill="none" stroke="black" d="M32.5,-100C26.5,-100 20.5,-94 20.5,-88"/>
<polyline fill="none" stroke="black" points="20.5,-88 20.5,-72 "/>
<path fill="none" stroke="black" d="M20.5,-72C20.5,-66 26.5,-60 32.5,-60"/>
<text text-anchor="middle" x="30.5" y="-77.2" font-family="Helvetica,sans-Serif" font-size="12.00"> </text>
<polyline fill="none" stroke="black" points="40.5,-60 40.5,-100 "/>
<text text-anchor="middle" x="70" y="-85.2" font-family="Helvetica,sans-Serif" font-size="12.00">siggen1</text>
<text text-anchor="middle" x="70" y="-69.2" font-family="Helvetica,sans-Serif" font-size="12.00">ssource</text>
<polyline fill="none" stroke="black" points="99.5,-60 99.5,-100 "/>
<text text-anchor="middle" x="109.5" y="-77.2" font-family="Helvetica,sans-Serif" font-size="12.00"> </text>
</g>
<!-- top@siggen1&#45;&gt;top@mulacc1@port_1 -->
<g id="edge24" class="edge"><title>top@siggen1:oport1:e&#45;&gt;top@mulacc1@port_1:w</title>
<path fill="none" stroke="black" d="M120,-80C147.691,-80 156.599,-87.0142 179.888,-88.6582"/>
<polygon fill="black" stroke="black" points="179.887,-92.1601 190,-89 180.124,-85.1641 179.887,-92.1601"/>
</g>
</g>
</svg>
