<?xml version="1.0" encoding="UTF-8" standalone="no"?>
<!DOCTYPE svg PUBLIC "-//W3C//DTD SVG 1.1//EN"
 "http://www.w3.org/Graphics/SVG/1.1/DTD/svg11.dtd">
<!-- Generated by graphviz version 2.26.3 (20100126.1600)
 -->
<!-- Title: _anonymous_0 Pages: 1 -->
<svg width="834pt" height="182pt"
 viewBox="0.00 0.00 834.00 182.00" xmlns="http://www.w3.org/2000/svg" xmlns:xlink="http://www.w3.org/1999/xlink">
<g id="graph1" class="graph" transform="scale(1 1) rotate(0) translate(4 178)">
<title>_anonymous_0</title>
<polygon fill="white" stroke="white" points="-4,5 -4,-178 831,-178 831,5 -4,5"/>
<g id="graph2" class="cluster"><title>cluster_top</title>
<polygon fill="#f4efea" stroke="#f4efea" points="20,-8 806,-8 818,-20 818,-154 806,-166 20,-166 8,-154 8,-20 20,-8"/>
<path fill="#f4efea" stroke="#f4efea" d="M806,-8C812,-8 818,-14 818,-20"/>
<path fill="#f4efea" stroke="#f4efea" d="M818,-154C818,-160 812,-166 806,-166"/>
<path fill="#f4efea" stroke="#f4efea" d="M20,-166C14,-166 8,-160 8,-154"/>
<path fill="#f4efea" stroke="#f4efea" d="M8,-20C8,-14 14,-8 20,-8"/>
<polyline fill="none" stroke="#f4efea" points="20,-8 806,-8 "/>
<path fill="none" stroke="#f4efea" d="M806,-8C812,-8 818,-14 818,-20"/>
<polyline fill="none" stroke="#f4efea" points="818,-20 818,-154 "/>
<path fill="none" stroke="#f4efea" d="M818,-154C818,-160 812,-166 806,-166"/>
<polyline fill="none" stroke="#f4efea" points="806,-166 20,-166 "/>
<path fill="none" stroke="#f4efea" d="M20,-166C14,-166 8,-160 8,-154"/>
<polyline fill="none" stroke="#f4efea" points="8,-154 8,-20 "/>
<path fill="none" stroke="#f4efea" d="M8,-20C8,-14 14,-8 20,-8"/>
<text text-anchor="middle" x="413" y="-150.3" font-family="Helvetica,sans-Serif" font-size="13.00">top</text>
</g>
<g id="graph3" class="cluster"><title>cluster_root_compAvg1</title>
<polygon fill="#e5dbcd" stroke="#e5dbcd" points="266,-16 564,-16 576,-28 576,-121 564,-133 266,-133 254,-121 254,-28 266,-16"/>
<path fill="#e5dbcd" stroke="#e5dbcd" d="M564,-16C570,-16 576,-22 576,-28"/>
<path fill="#e5dbcd" stroke="#e5dbcd" d="M576,-121C576,-127 570,-133 564,-133"/>
<path fill="#e5dbcd" stroke="#e5dbcd" d="M266,-133C260,-133 254,-127 254,-121"/>
<path fill="#e5dbcd" stroke="#e5dbcd" d="M254,-28C254,-22 260,-16 266,-16"/>
<polyline fill="none" stroke="#e5dbcd" points="266,-16 564,-16 "/>
<path fill="none" stroke="#e5dbcd" d="M564,-16C570,-16 576,-22 576,-28"/>
<polyline fill="none" stroke="#e5dbcd" points="576,-28 576,-121 "/>
<path fill="none" stroke="#e5dbcd" d="M576,-121C576,-127 570,-133 564,-133"/>
<polyline fill="none" stroke="#e5dbcd" points="564,-133 266,-133 "/>
<path fill="none" stroke="#e5dbcd" d="M266,-133C260,-133 254,-127 254,-121"/>
<polyline fill="none" stroke="#e5dbcd" points="254,-121 254,-28 "/>
<path fill="none" stroke="#e5dbcd" d="M254,-28C254,-22 260,-16 266,-16"/>
<text text-anchor="middle" x="415" y="-117.3" font-family="Helvetica,sans-Serif" font-size="13.00">compAvg1</text>
</g>
<!-- root_compAvg1_avg1 -->
<g id="node3" class="node"><title>root_compAvg1_avg1</title>
<polygon fill="#fcd975" stroke="#fcd975" points="360.5,-30 419.5,-30 431.5,-42 431.5,-66 419.5,-78 360.5,-78 348.5,-66 348.5,-42 360.5,-30"/>
<path fill="#fcd975" stroke="#fcd975" d="M419.5,-30C425.5,-30 431.5,-36 431.5,-42"/>
<path fill="#fcd975" stroke="#fcd975" d="M431.5,-66C431.5,-72 425.5,-78 419.5,-78"/>
<path fill="#fcd975" stroke="#fcd975" d="M360.5,-78C354.5,-78 348.5,-72 348.5,-66"/>
<path fill="#fcd975" stroke="#fcd975" d="M348.5,-42C348.5,-36 354.5,-30 360.5,-30"/>
<polyline fill="none" stroke="black" points="360.5,-30 419.5,-30 "/>
<path fill="none" stroke="black" d="M419.5,-30C425.5,-30 431.5,-36 431.5,-42"/>
<polyline fill="none" stroke="black" points="431.5,-42 431.5,-66 "/>
<path fill="none" stroke="black" d="M431.5,-66C431.5,-72 425.5,-78 419.5,-78"/>
<polyline fill="none" stroke="black" points="419.5,-78 360.5,-78 "/>
<path fill="none" stroke="black" d="M360.5,-78C354.5,-78 348.5,-72 348.5,-66"/>
<polyline fill="none" stroke="black" points="348.5,-66 348.5,-42 "/>
<path fill="none" stroke="black" d="M348.5,-42C348.5,-36 354.5,-30 360.5,-30"/>
<text text-anchor="middle" x="358.5" y="-63.2" font-family="Helvetica,sans-Serif" font-size="12.00"> </text>
<polyline fill="none" stroke="black" points="348.5,-54 368.5,-54 "/>
<text text-anchor="middle" x="358.5" y="-39.2" font-family="Helvetica,sans-Serif" font-size="12.00"> </text>
<polyline fill="none" stroke="black" points="368.5,-30 368.5,-78 "/>
<text text-anchor="middle" x="390" y="-51.2" font-family="Helvetica,sans-Serif" font-size="12.00">avg1</text>
<polyline fill="none" stroke="black" points="411.5,-30 411.5,-78 "/>
<text text-anchor="middle" x="421.5" y="-51.2" font-family="Helvetica,sans-Serif" font-size="12.00"> </text>
</g>
<!-- root_compAvg1_avginit1 -->
<g id="node4" class="node"><title>root_compAvg1_avginit1</title>
<polygon fill="#fcd975" stroke="#fcd975" points="480.5,-24 555.5,-24 567.5,-36 567.5,-48 555.5,-60 480.5,-60 468.5,-48 468.5,-36 480.5,-24"/>
<path fill="#fcd975" stroke="#fcd975" d="M555.5,-24C561.5,-24 567.5,-30 567.5,-36"/>
<path fill="#fcd975" stroke="#fcd975" d="M567.5,-48C567.5,-54 561.5,-60 555.5,-60"/>
<path fill="#fcd975" stroke="#fcd975" d="M480.5,-60C474.5,-60 468.5,-54 468.5,-48"/>
<path fill="#fcd975" stroke="#fcd975" d="M468.5,-36C468.5,-30 474.5,-24 480.5,-24"/>
<polyline fill="none" stroke="black" points="480.5,-24 555.5,-24 "/>
<path fill="none" stroke="black" d="M555.5,-24C561.5,-24 567.5,-30 567.5,-36"/>
<polyline fill="none" stroke="black" points="567.5,-36 567.5,-48 "/>
<path fill="none" stroke="black" d="M567.5,-48C567.5,-54 561.5,-60 555.5,-60"/>
<polyline fill="none" stroke="black" points="555.5,-60 480.5,-60 "/>
<path fill="none" stroke="black" d="M480.5,-60C474.5,-60 468.5,-54 468.5,-48"/>
<polyline fill="none" stroke="black" points="468.5,-48 468.5,-36 "/>
<path fill="none" stroke="black" d="M468.5,-36C468.5,-30 474.5,-24 480.5,-24"/>
<text text-anchor="middle" x="478.5" y="-39.2" font-family="Helvetica,sans-Serif" font-size="12.00"> </text>
<polyline fill="none" stroke="black" points="488.5,-24 488.5,-60 "/>
<text text-anchor="middle" x="518" y="-39.2" font-family="Helvetica,sans-Serif" font-size="12.00">avginit1</text>
<polyline fill="none" stroke="black" points="547.5,-24 547.5,-60 "/>
<text text-anchor="middle" x="557.5" y="-39.2" font-family="Helvetica,sans-Serif" font-size="12.00"> </text>
</g>
<!-- root_compAvg1_avg1&#45;&gt;root_compAvg1_avginit1 -->
<g id="edge4" class="edge"><title>root_compAvg1_avg1:oport1&#45;&gt;root_compAvg1_avginit1:iport1</title>
<path fill="none" stroke="black" d="M432,-54C444.781,-54 449.179,-47.1086 457.9,-43.7706"/>
<polygon fill="black" stroke="black" points="458.755,-47.1743 468,-42 457.546,-40.2794 458.755,-47.1743"/>
</g>
<!-- root_compAvg1_port_1 -->
<g id="node6" class="node"><title>root_compAvg1_port_1</title>
<polygon fill="none" stroke="black" points="525.725,-78 543,-89 525.725,-100 497.775,-99.9897 497.775,-78.0103 525.725,-78"/>
<text text-anchor="middle" x="518" y="-87.8" font-family="Helvetica,sans-Serif" font-size="8.00">port_1</text>
</g>
<!-- root_compAvg1_avg1&#45;&gt;root_compAvg1_port_1 -->
<g id="edge6" class="edge"><title>root_compAvg1_avg1:oport1&#45;&gt;root_compAvg1_port_1</title>
<path fill="none" stroke="black" d="M432,-54C449.333,-54 451.953,-62.4478 468,-69 474.513,-71.6594 481.518,-74.4835 488.162,-77.1456"/>
<polygon fill="black" stroke="black" points="486.954,-80.4321 497.539,-80.892 489.551,-73.9316 486.954,-80.4321"/>
</g>
<!-- root_compAvg1_avginit1&#45;&gt;root_compAvg1_avg1 -->
<g id="edge8" class="edge"><title>root_compAvg1_avginit1:oport1&#45;&gt;root_compAvg1_avg1:iport2</title>
<path fill="none" stroke="black" d="M558,-60C558,-69.9444 477.873,-63.3224 468.5,-60 448.546,-52.9269 451.356,-37.3439 431.5,-30 404.921,-20.1697 369.167,-1.3099 360.139,-17.7847"/>
<polygon fill="black" stroke="black" points="356.623,-17.495 358,-28 363.475,-18.9294 356.623,-17.495"/>
</g>
<!-- root_ds1 -->
<g id="node11" class="node"><title>root_ds1</title>
<polygon fill="#fcd975" stroke="#fcd975" points="616,-71 668,-71 680,-83 680,-95 668,-107 616,-107 604,-95 604,-83 616,-71"/>
<path fill="#fcd975" stroke="#fcd975" d="M668,-71C674,-71 680,-77 680,-83"/>
<path fill="#fcd975" stroke="#fcd975" d="M680,-95C680,-101 674,-107 668,-107"/>
<path fill="#fcd975" stroke="#fcd975" d="M616,-107C610,-107 604,-101 604,-95"/>
<path fill="#fcd975" stroke="#fcd975" d="M604,-83C604,-77 610,-71 616,-71"/>
<polyline fill="none" stroke="black" points="616,-71 668,-71 "/>
<path fill="none" stroke="black" d="M668,-71C674,-71 680,-77 680,-83"/>
<polyline fill="none" stroke="black" points="680,-83 680,-95 "/>
<path fill="none" stroke="black" d="M680,-95C680,-101 674,-107 668,-107"/>
<polyline fill="none" stroke="black" points="668,-107 616,-107 "/>
<path fill="none" stroke="black" d="M616,-107C610,-107 604,-101 604,-95"/>
<polyline fill="none" stroke="black" points="604,-95 604,-83 "/>
<path fill="none" stroke="black" d="M604,-83C604,-77 610,-71 616,-71"/>
<text text-anchor="middle" x="614" y="-86.2" font-family="Helvetica,sans-Serif" font-size="12.00"> </text>
<polyline fill="none" stroke="black" points="624,-71 624,-107 "/>
<text text-anchor="middle" x="642" y="-86.2" font-family="Helvetica,sans-Serif" font-size="12.00">ds1</text>
<polyline fill="none" stroke="black" points="660,-71 660,-107 "/>
<text text-anchor="middle" x="670" y="-86.2" font-family="Helvetica,sans-Serif" font-size="12.00"> </text>
</g>
<!-- root_compAvg1_port_1&#45;&gt;root_ds1 -->
<g id="edge12" class="edge"><title>root_compAvg1_port_1&#45;&gt;root_ds1:iport1</title>
<path fill="none" stroke="black" d="M543.213,-89C557.541,-89 576.098,-89 593.75,-89"/>
<polygon fill="black" stroke="black" points="594,-92.5001 604,-89 594,-85.5001 594,-92.5001"/>
</g>
<!-- root_compAvg1_port_0 -->
<g id="node9" class="node"><title>root_compAvg1_port_0</title>
<polygon fill="none" stroke="black" points="294.725,-55 312,-66 294.725,-77 266.775,-76.9897 266.775,-55.0103 294.725,-55"/>
<text text-anchor="middle" x="287" y="-64.8" font-family="Helvetica,sans-Serif" font-size="8.00">port_0</text>
</g>
<!-- root_compAvg1_port_0&#45;&gt;root_compAvg1_avg1 -->
<g id="edge10" class="edge"><title>root_compAvg1_port_0&#45;&gt;root_compAvg1_avg1:iport1</title>
<path fill="none" stroke="black" d="M312.227,-66C320.125,-66 329.077,-66 337.853,-66"/>
<polygon fill="black" stroke="black" points="338,-69.5001 348,-66 338,-62.5001 338,-69.5001"/>
</g>
<!-- root_report1 -->
<g id="node17" class="node"><title>root_report1</title>
<polygon fill="#fcd975" stroke="#fcd975" points="728,-71 798,-71 810,-83 810,-95 798,-107 728,-107 716,-95 716,-83 728,-71"/>
<path fill="#fcd975" stroke="#fcd975" d="M798,-71C804,-71 810,-77 810,-83"/>
<path fill="#fcd975" stroke="#fcd975" d="M810,-95C810,-101 804,-107 798,-107"/>
<path fill="#fcd975" stroke="#fcd975" d="M728,-107C722,-107 716,-101 716,-95"/>
<path fill="#fcd975" stroke="#fcd975" d="M716,-83C716,-77 722,-71 728,-71"/>
<polyline fill="none" stroke="black" points="728,-71 798,-71 "/>
<path fill="none" stroke="black" d="M798,-71C804,-71 810,-77 810,-83"/>
<polyline fill="none" stroke="black" points="810,-83 810,-95 "/>
<path fill="none" stroke="black" d="M810,-95C810,-101 804,-107 798,-107"/>
<polyline fill="none" stroke="black" points="798,-107 728,-107 "/>
<path fill="none" stroke="black" d="M728,-107C722,-107 716,-101 716,-95"/>
<polyline fill="none" stroke="black" points="716,-95 716,-83 "/>
<path fill="none" stroke="black" d="M716,-83C716,-77 722,-71 728,-71"/>
<text text-anchor="middle" x="726" y="-86.2" font-family="Helvetica,sans-Serif" font-size="12.00"> </text>
<polyline fill="none" stroke="black" points="736,-71 736,-107 "/>
<text text-anchor="middle" x="763" y="-86.2" font-family="Helvetica,sans-Serif" font-size="12.00">report1</text>
<polyline fill="none" stroke="black" points="790,-71 790,-107 "/>
<text text-anchor="middle" x="800" y="-86.2" font-family="Helvetica,sans-Serif" font-size="12.00"> </text>
</g>
<!-- root_ds1&#45;&gt;root_report1 -->
<g id="edge18" class="edge"><title>root_ds1:oport1&#45;&gt;root_report1:iport1</title>
<path fill="none" stroke="black" d="M680,-89C692,-89 697.25,-89 705.875,-89"/>
<polygon fill="black" stroke="black" points="706,-92.5001 716,-89 706,-85.5001 706,-92.5001"/>
</g>
<!-- root_stimuli1 -->
<g id="node13" class="node"><title>root_stimuli1</title>
<polygon fill="#fcd975" stroke="#fcd975" points="28,-48 102,-48 114,-60 114,-72 102,-84 28,-84 16,-72 16,-60 28,-48"/>
<path fill="#fcd975" stroke="#fcd975" d="M102,-48C108,-48 114,-54 114,-60"/>
<path fill="#fcd975" stroke="#fcd975" d="M114,-72C114,-78 108,-84 102,-84"/>
<path fill="#fcd975" stroke="#fcd975" d="M28,-84C22,-84 16,-78 16,-72"/>
<path fill="#fcd975" stroke="#fcd975" d="M16,-60C16,-54 22,-48 28,-48"/>
<polyline fill="none" stroke="black" points="28,-48 102,-48 "/>
<path fill="none" stroke="black" d="M102,-48C108,-48 114,-54 114,-60"/>
<polyline fill="none" stroke="black" points="114,-60 114,-72 "/>
<path fill="none" stroke="black" d="M114,-72C114,-78 108,-84 102,-84"/>
<polyline fill="none" stroke="black" points="102,-84 28,-84 "/>
<path fill="none" stroke="black" d="M28,-84C22,-84 16,-78 16,-72"/>
<polyline fill="none" stroke="black" points="16,-72 16,-60 "/>
<path fill="none" stroke="black" d="M16,-60C16,-54 22,-48 28,-48"/>
<text text-anchor="middle" x="26" y="-63.2" font-family="Helvetica,sans-Serif" font-size="12.00"> </text>
<polyline fill="none" stroke="black" points="36,-48 36,-84 "/>
<text text-anchor="middle" x="65" y="-63.2" font-family="Helvetica,sans-Serif" font-size="12.00">stimuli1</text>
<polyline fill="none" stroke="black" points="94,-48 94,-84 "/>
<text text-anchor="middle" x="104" y="-63.2" font-family="Helvetica,sans-Serif" font-size="12.00"> </text>
</g>
<!-- root_us1 -->
<g id="node14" class="node"><title>root_us1</title>
<polygon fill="#fcd975" stroke="#fcd975" points="162,-48 214,-48 226,-60 226,-72 214,-84 162,-84 150,-72 150,-60 162,-48"/>
<path fill="#fcd975" stroke="#fcd975" d="M214,-48C220,-48 226,-54 226,-60"/>
<path fill="#fcd975" stroke="#fcd975" d="M226,-72C226,-78 220,-84 214,-84"/>
<path fill="#fcd975" stroke="#fcd975" d="M162,-84C156,-84 150,-78 150,-72"/>
<path fill="#fcd975" stroke="#fcd975" d="M150,-60C150,-54 156,-48 162,-48"/>
<polyline fill="none" stroke="black" points="162,-48 214,-48 "/>
<path fill="none" stroke="black" d="M214,-48C220,-48 226,-54 226,-60"/>
<polyline fill="none" stroke="black" points="226,-60 226,-72 "/>
<path fill="none" stroke="black" d="M226,-72C226,-78 220,-84 214,-84"/>
<polyline fill="none" stroke="black" points="214,-84 162,-84 "/>
<path fill="none" stroke="black" d="M162,-84C156,-84 150,-78 150,-72"/>
<polyline fill="none" stroke="black" points="150,-72 150,-60 "/>
<path fill="none" stroke="black" d="M150,-60C150,-54 156,-48 162,-48"/>
<text text-anchor="middle" x="160" y="-63.2" font-family="Helvetica,sans-Serif" font-size="12.00"> </text>
<polyline fill="none" stroke="black" points="170,-48 170,-84 "/>
<text text-anchor="middle" x="188" y="-63.2" font-family="Helvetica,sans-Serif" font-size="12.00">us1</text>
<polyline fill="none" stroke="black" points="206,-48 206,-84 "/>
<text text-anchor="middle" x="216" y="-63.2" font-family="Helvetica,sans-Serif" font-size="12.00"> </text>
</g>
<!-- root_stimuli1&#45;&gt;root_us1 -->
<g id="edge14" class="edge"><title>root_stimuli1:oport1&#45;&gt;root_us1:iport1</title>
<path fill="none" stroke="black" d="M114,-66C126,-66 131.25,-66 139.875,-66"/>
<polygon fill="black" stroke="black" points="140,-69.5001 150,-66 140,-62.5001 140,-69.5001"/>
</g>
<!-- root_us1&#45;&gt;root_compAvg1_port_0 -->
<g id="edge16" class="edge"><title>root_us1:oport1&#45;&gt;root_compAvg1_port_0</title>
<path fill="none" stroke="black" d="M226,-66C235.955,-66 246.824,-66 256.593,-66"/>
<polygon fill="black" stroke="black" points="256.667,-69.5001 266.667,-66 256.667,-62.5001 256.667,-69.5001"/>
</g>
</g>
</svg>
